<?xml version="1.0" encoding="utf-8"?>
<!-- Generator: Adobe Illustrator 28.2.0, SVG Export Plug-In . SVG Version: 6.00 Build 0)  -->
<svg version="1.2" baseProfile="tiny" id="g-early_childhood_ed-Artboard_1-1200-img" xmlns="http://www.w3.org/2000/svg" xmlns:xlink="http://www.w3.org/1999/xlink"
	 x="0px" y="0px" viewBox="0 0 1200 1540.017" overflow="visible" xml:space="preserve">
<g>
	
	<g>
		<path fill="none" stroke="#000000" stroke-width="1.5" stroke-miterlimit="10" d="M293.002,1073.837
			c5.23,9.831,18.67,31.833,45.604,47.205c28.118,16.047,55.771,16.208,70.913,14.708"/>
		<g>
			<path d="M418.485,1134.509c-4.019,2.119-8.911,5.478-11.789,8.734l1.635-7.408l-3.482-6.738
				C408.466,1131.505,414.056,1133.495,418.485,1134.509z"/>
		</g>
	</g>
	<g>
		<path fill="none" stroke="#000000" stroke-width="1.5" stroke-miterlimit="10" d="M292.821,1026.703
			c10.012-12.076,27.841-30.159,55.187-43.04c44.086-20.766,86.188-15.426,106.903-10.825"/>
		<g>
			<path d="M463.693,975.034c-4.512,0.536-10.283,1.915-14.138,3.922l4.184-6.328l-0.832-7.539
				C455.42,968.636,459.924,972.499,463.693,975.034z"/>
		</g>
	</g>
</g>
<style>
#g-early_childhood_ed-Artboard_1-1200-img rect, #g-early_childhood_ed-Artboard_1-1200-img circle, #g-early_childhood_ed-Artboard_1-1200-img path, #g-early_childhood_ed-Artboard_1-1200-img line, #g-early_childhood_ed-Artboard_1-1200-img polyline, #g-early_childhood_ed-Artboard_1-1200-img polygon { vector-effect: non-scaling-stroke; }
</style>
</svg>

